<?xml version="1.0" encoding="utf-8"?>
<!-- Generator: Adobe Illustrator 16.0.4, SVG Export Plug-In . SVG Version: 6.00 Build 0)  -->
<!DOCTYPE svg PUBLIC "-//W3C//DTD SVG 1.1//EN" "http://www.w3.org/Graphics/SVG/1.1/DTD/svg11.dtd">
<svg version="1.1" id="Layer_1" xmlns="http://www.w3.org/2000/svg" xmlns:xlink="http://www.w3.org/1999/xlink" x="0px" y="0px"
	 width="2000px" height="2000px" viewBox="0 0 2000 2000" enable-background="new 0 0 2000 2000" xml:space="preserve">
<path fill="#FFFDFD" d="M888.019,827.757c0-84.822,166.561-146.835,353.19-146.835c39.252,0,76.935,3.053,111.975,8.642
	c-56.492-19.931-126.717-31.757-202.835-31.757c-186.636,0-337.932,71.041-337.932,158.673
	c0,78.785,122.312,144.149,282.636,156.542C981.602,948.249,888.019,888.791,888.019,827.757L888.019,827.757z"/>
<path fill="#71BF44" d="M1201.563,973.963c0,84.822-166.561,146.835-353.189,146.835c-39.253,0-76.935-3.054-111.976-8.642
	c56.492,19.931,126.723,31.757,202.835,31.757c186.636,0,337.932-71.041,337.932-158.673c0-78.785-122.312-144.149-282.636-156.542
	C1107.981,853.471,1201.564,912.929,1201.563,973.963L1201.563,973.963z"/>
<path fill="#FFFDFD" d="M0,657.807h349.303v50.698H54.86v173.601h263.19v50.001H54.86v211.807H0V657.807L0,657.807z"/>
<path fill="#FFFDFD" d="M590.467,951.552l-202.08-293.745h66.673l163.882,243.053l165.283-243.053h63.888L646.031,950.854v193.06
	h-55.563L590.467,951.552L590.467,951.552z"/>
<path fill="#FFFDFD" d="M1446.287,657.807h-54.86v43.944c19.296,6.81,37.626,14.317,54.86,22.38V657.807z"/>
<path fill="#FFFDFD" d="M1391.427,719.084v424.829h54.86V733.178C1428.617,727.895,1410.293,723.172,1391.427,719.084
	L1391.427,719.084z"/>
<path fill="#FFFDFD" d="M1938,902.249v-1.39c0-110.417-80.555-200.691-191.663-200.691c-111.109,0-190.274,88.885-190.274,199.303
	v1.389c0,110.418,80.555,200.692,191.657,200.692C1858.835,1101.552,1938,1012.667,1938,902.249z M1499.115,902.249v-1.39
	c0-134.03,100.691-251.389,248.604-251.389c147.919,0,247.222,115.975,247.222,250v1.389c0,134.025-100.692,251.384-248.605,251.384
	C1598.424,1152.243,1499.115,1036.274,1499.115,902.249L1499.115,902.249z"/>
<path fill="#FFFDFD" d="M15.458,1225.851v108.398h32.087c34.636,0,56.742-23.482,56.742-53.807v-0.393
	c0-30.324-22.106-54.199-56.742-54.199H15.458z M0,1211.57h47.545c43.047,0,72.792,29.545,72.792,68.087v0.393
	c0,38.549-29.745,68.486-72.792,68.486H0V1211.57z"/>
<path fill="#FFFDFD" d="M404.05,1298.249l-31.109-69.657l-31.302,69.657H404.05z M365.9,1210.592h14.479l62.418,137.944h-16.636
	l-16.044-36.199H335.57l-16.237,36.199h-15.85L365.9,1210.592z"/>
<path fill="#FFFDFD" d="M628.193,1211.57h14.479l86.293,109.763V1211.57h15.065v136.966h-12.33l-88.437-112.312v112.312h-15.071
	V1211.57z"/>
<path fill="#FFFDFD" d="M933.533,1211.57h15.657l49.894,74.741l49.895-74.741h15.65v136.966h-15.451v-110.941l-49.9,73.371h-0.779
	l-49.894-73.178v110.748h-15.071V1211.57z"/>
<path fill="#FFFDFD" d="M1342.972,1298.249l-31.115-69.657l-31.302,69.657H1342.972z M1304.816,1210.592h14.479l62.417,137.944
	h-16.635l-16.044-36.199h-74.548l-16.237,36.199h-15.851L1304.816,1210.592L1304.816,1210.592z"/>
<path fill="#FFFDFD" d="M1625.906,1281.421c20.549,0,35.222-10.567,35.222-28.175v-0.393c0-16.828-12.916-27.003-35.028-27.003
	h-42.262v55.57H1625.906L1625.906,1281.421z M1568.38,1211.57h58.897c16.828,0,30.33,5.084,38.935,13.694
	c6.654,6.654,10.567,16.243,10.567,27.003v0.393c0,22.691-15.651,36-37.178,39.913l42.068,55.963h-18.979l-39.719-53.222h-39.135
	v53.222h-15.457L1568.38,1211.57L1568.38,1211.57z"/>
<path fill="#FFFDFD" d="M1879.688,1211.57h15.458v81.781l78.66-81.781h19.957l-58.698,59.875l61.24,77.091h-19.371l-52.636-66.337
	l-29.152,29.552v36.785h-15.458V1211.57L1879.688,1211.57z"/>
</svg>
