<?xml version="1.0" standalone="no"?><!DOCTYPE svg PUBLIC "-//W3C//DTD SVG 1.1//EN" "http://www.w3.org/Graphics/SVG/1.1/DTD/svg11.dtd"><svg width="100%" height="100%" viewBox="0 0 321 113" version="1.1" xmlns="http://www.w3.org/2000/svg" xmlns:xlink="http://www.w3.org/1999/xlink" xml:space="preserve" style="fill-rule:evenodd;clip-rule:evenodd;stroke-linejoin:round;stroke-miterlimit:1.41421;"><g id="fd-logo"><path d="M142.527,28.855c0,-13.614 26.733,-23.567 56.687,-23.567c6.3,0 12.348,0.49 17.972,1.387c-9.067,-3.199 -20.338,-5.097 -32.555,-5.097c-29.955,0 -54.238,11.402 -54.238,25.467c0,12.645 19.631,23.136 45.363,25.125c-18.209,-3.976 -33.229,-13.519 -33.229,-23.315Z" style="fill:#fff;fill-rule:nonzero;"/><path d="M192.851,52.321c0,13.614 -26.733,23.567 -56.687,23.567c-6.3,0 -12.348,-0.49 -17.972,-1.387c9.067,3.199 20.339,5.097 32.555,5.097c29.955,0 54.238,-11.402 54.238,-25.467c0,-12.645 -19.631,-23.136 -45.363,-25.125c18.209,3.976 33.229,13.519 33.229,23.315Z" style="fill:#71bf44;fill-rule:nonzero;"/><path d="M0,1.578l56.063,0l0,8.137l-47.258,0l0,27.863l42.242,0l0,8.025l-42.242,0l0,33.995l-8.805,0l0,-78.02Z" style="fill:#fff;fill-rule:nonzero;"/><path d="M94.77,48.724l-32.434,-47.146l10.701,0l26.303,39.01l26.528,-39.01l10.254,0l-32.434,47.034l0,30.986l-8.918,0l0,-30.874Z" style="fill:#fff;fill-rule:nonzero;"/><path d="M232.129,1.578l-8.805,0l0,7.053c3.097,1.093 6.039,2.298 8.805,3.592l0,-10.645Z" style="fill:#fff;fill-rule:nonzero;"/><path d="M223.324,11.413l0,68.185l8.805,0l0,-65.923c-2.836,-0.848 -5.777,-1.606 -8.805,-2.262Z" style="fill:#fff;fill-rule:nonzero;"/><path d="M311.049,40.811l0,-0.223c0,-17.722 -12.929,-32.211 -30.762,-32.211c-17.833,0 -30.539,14.266 -30.539,31.988l0,0.223c0,17.722 12.929,32.211 30.761,32.211c17.834,0 30.54,-14.266 30.54,-31.988ZM240.608,40.811l0,-0.223c0,-21.512 16.161,-40.348 39.901,-40.348c23.741,0 39.679,18.614 39.679,40.125l0,0.223c0,21.511 -16.161,40.347 -39.901,40.347c-23.74,0 -39.679,-18.613 -39.679,-40.124Z" style="fill:#fff;fill-rule:nonzero;"/><path d="M2.481,92.749l0,17.398l5.15,0c5.559,0 9.107,-3.769 9.107,-8.636l0,-0.063c0,-4.867 -3.548,-8.699 -9.107,-8.699l-5.15,0ZM0,90.457l7.631,0c6.909,0 11.683,4.742 11.683,10.928l0,0.063c0,6.187 -4.774,10.992 -11.683,10.992l-7.631,0l0,-21.983Z" style="fill:#fff;fill-rule:nonzero;"/><path d="M64.85,104.369l-4.993,-11.18l-5.024,11.18l10.017,0ZM58.727,90.3l2.324,0l10.018,22.14l-2.67,0l-2.575,-5.81l-11.965,0l-2.606,5.81l-2.544,0l10.018,-22.14Z" style="fill:#fff;fill-rule:nonzero;"/><path d="M100.825,90.457l2.324,0l13.85,17.617l0,-17.617l2.418,0l0,21.983l-1.979,0l-14.194,-18.026l0,18.026l-2.419,0l0,-21.983Z" style="fill:#fff;fill-rule:nonzero;"/><path d="M149.832,90.457l2.513,0l8.008,11.996l8.008,-11.996l2.512,0l0,21.983l-2.48,0l0,-17.806l-8.009,11.776l-0.125,0l-8.008,-11.745l0,17.775l-2.419,0l0,-21.983Z" style="fill:#fff;fill-rule:nonzero;"/><path d="M215.547,104.369l-4.994,-11.18l-5.024,11.18l10.018,0ZM209.423,90.3l2.324,0l10.018,22.14l-2.67,0l-2.575,-5.81l-11.965,0l-2.606,5.81l-2.544,0l10.018,-22.14Z" style="fill:#fff;fill-rule:nonzero;"/><path d="M260.958,101.668c3.298,0 5.653,-1.696 5.653,-4.522l0,-0.063c0,-2.701 -2.073,-4.334 -5.622,-4.334l-6.783,0l0,8.919l6.752,0ZM251.725,90.457l9.453,0c2.701,0 4.868,0.816 6.249,2.198c1.068,1.068 1.696,2.607 1.696,4.334l0,0.063c0,3.642 -2.512,5.778 -5.967,6.406l6.752,8.982l-3.046,0l-6.375,-8.542l-6.281,0l0,8.542l-2.481,0l0,-21.983Z" style="fill:#fff;fill-rule:nonzero;"/><path d="M301.69,90.457l2.481,0l0,13.126l12.625,-13.126l3.203,0l-9.421,9.61l9.829,12.373l-3.109,0l-8.448,-10.647l-4.679,4.743l0,5.904l-2.481,0l0,-21.983Z" style="fill:#fff;fill-rule:nonzero;"/></g></svg>
